<?xml version="1.0" encoding="UTF-8"?>
<svg clip-rule="evenodd" fill-rule="evenodd" stroke-linejoin="round" stroke-miterlimit="1.4142" version="1.1" viewBox="0 0 168.54 145.39" xml:space="preserve" xmlns="http://www.w3.org/2000/svg" xmlns:cc="http://creativecommons.org/ns#" xmlns:dc="http://purl.org/dc/elements/1.1/" xmlns:rdf="http://www.w3.org/1999/02/22-rdf-syntax-ns#"><metadata><rdf:RDF><cc:Work rdf:about=""><dc:format>image/svg+xml</dc:format><dc:type rdf:resource="http://purl.org/dc/dcmitype/StillImage"/><dc:title/></cc:Work></rdf:RDF></metadata><text x="84.609375" y="137.34767" fill="#000000" font-family="sans-serif" font-size="40px" letter-spacing="0px" word-spacing="0px" style="line-height:1.25" xml:space="preserve"><tspan x="84.609375" y="137.34767" font-family="sans-serif" font-size="40px" text-align="center" text-anchor="middle" style="font-feature-settings:normal;font-variant-caps:normal;font-variant-ligatures:normal;font-variant-numeric:normal">Archway</tspan></text>


<g transform="translate(-3.8477 -.25)"><path d="m93.811 25.623h-11.542c-0.096-4e-3 -0.187-0.013-0.28-0.04-0.243-0.071-0.454-0.235-0.582-0.454-0.049-0.084-0.08-0.17-0.108-0.262l-0.634-2.524c-0.755 0.093-1.507 0.217-2.252 0.373-0.989 0.206-1.966 0.466-2.927 0.777-5.26 1.704-10.073 4.965-13.369 9.431-0.676 0.916-1.286 1.881-1.818 2.887-0.596 1.127-1.094 2.307-1.479 3.522-0.317 0.999-0.557 2.021-0.718 3.056-0.081 0.526-0.14 1.054-0.181 1.584l-0.011 0.145-7e-3 0.117 0.023 60.821c-0.017 0.172-9e-3 0.22-0.076 0.383-0.101 0.243-0.297 0.44-0.54 0.541-0.162 0.067-0.21 0.059-0.382 0.077l-17.759 0.033c-0.172-0.017-0.221-8e-3 -0.383-0.076-0.244-0.1-0.442-0.297-0.543-0.541-0.067-0.163-0.059-0.211-0.076-0.384l0.044-60.913c0.057-1.069 0.15-2.134 0.29-3.196 0.298-2.255 0.792-4.483 1.468-6.655 0.543-1.741 1.203-3.446 1.97-5.1 0.62-1.339 1.31-2.645 2.064-3.913 0.667-1.12 1.383-2.211 2.146-3.268 5.001-6.936 11.957-12.415 19.821-15.756 3.181-1.352 6.511-2.354 9.912-2.972l-0.418-1.661c-6e-3 -0.031-0.014-0.062-0.019-0.093-0.014-0.095-0.015-0.192-2e-3 -0.286 0.049-0.353 0.288-0.66 0.618-0.792 0.089-0.036 0.182-0.059 0.278-0.068 0.031-3e-3 0.063-3e-3 0.095-5e-3 7.769 0 15.547-0.366 23.307 5e-3 0.032 5e-3 0.064 8e-3 0.095 0.014 0.094 0.018 0.185 0.05 0.27 0.094 0.286 0.148 0.487 0.432 0.531 0.752 0.013 0.094 0.012 0.191-2e-3 0.286-5e-3 0.031-0.013 0.062-0.019 0.093l-0.411 1.635c3.451 0.616 6.83 1.627 10.056 2.998 7.864 3.341 14.82 8.82 19.822 15.756 0.762 1.057 1.479 2.148 2.145 3.268 0.754 1.268 1.444 2.574 2.065 3.913 0.766 1.654 1.426 3.359 1.969 5.1 0.676 2.172 1.17 4.4 1.468 6.655 0.14 1.062 0.233 2.127 0.29 3.196l0.044 60.913c-0.017 0.173-9e-3 0.221-0.076 0.384-0.101 0.244-0.299 0.441-0.543 0.541-0.162 0.068-0.211 0.059-0.383 0.076l-17.758-0.033c-0.173-0.018-0.221-0.01-0.383-0.077-0.243-0.101-0.439-0.298-0.54-0.541-0.067-0.163-0.059-0.211-0.076-0.383l0.023-60.821c-0.104-1.617-0.395-3.218-0.874-4.766-0.392-1.264-0.904-2.489-1.522-3.658-0.554-1.048-1.193-2.052-1.903-3.001-1.563-2.092-3.468-3.921-5.588-5.441-3.206-2.299-6.907-3.899-10.772-4.684-0.745-0.151-1.495-0.271-2.249-0.36l-0.639 2.542c-0.028 0.092-0.059 0.178-0.108 0.262-0.128 0.219-0.339 0.383-0.582 0.454-0.093 0.027-0.184 0.036-0.28 0.04zm-37.893 59.38h-15.736l-0.014 19.085 15.757-0.03zm80.131 0h-15.736l-7e-3 19.055 15.757 0.03zm-0.014-20h-15.714l-7e-3 18.13h15.734zm-80.124 0h-15.715l-0.013 18.13h15.734zm80.025-22h-15.709c0.043 0.389 0.076 0.778 0.101 1.169l-7e-3 18.961h15.713l-0.014-18.902c-0.022-0.41-0.05-0.819-0.084-1.228zm-79.932 0h-15.709c-0.028 0.332-0.052 0.665-0.072 0.998l-0.012 0.23-0.014 18.902h15.713l-7e-3 -18.961c0.011-0.17 0.023-0.339 0.036-0.509 0.019-0.22 0.04-0.44 0.065-0.66zm69.444-23.514-10.84 10.84c0.454 0.535 0.887 1.088 1.298 1.658 0.693 0.963 1.318 1.974 1.866 3.026 0.644 1.238 1.18 2.531 1.592 3.864 0.23 0.742 0.421 1.495 0.573 2.256h15.796c-0.262-1.941-0.678-3.861-1.236-5.738-0.731-2.457-1.708-4.839-2.897-7.109-0.654-1.248-1.372-2.462-2.148-3.637-1.203-1.82-2.544-3.544-4.004-5.16zm-74.665 0c-1.96 2.17-3.705 4.533-5.188 7.06-0.711 1.213-1.362 2.462-1.945 3.742-0.686 1.504-1.279 3.051-1.771 4.629-0.618 1.983-1.076 4.016-1.362 6.073l-0.019 0.14h15.796c0.182-0.914 0.422-1.816 0.715-2.7 0.44-1.323 1.001-2.605 1.668-3.829 0.593-1.087 1.269-2.128 2.016-3.116 0.299-0.395 0.61-0.781 0.93-1.158zm25.588-14.229c-3.385 0.605-6.698 1.607-9.855 2.97-5.392 2.327-10.335 5.708-14.451 9.898l10.82 10.819c3.119-3.19 7.018-5.612 11.22-7.098 0.916-0.323 1.847-0.603 2.789-0.837 1.081-0.269 2.176-0.478 3.279-0.624zm23.345-0.025-3.805 15.136c1.367 0.175 2.722 0.442 4.054 0.804 0.936 0.254 1.859 0.553 2.767 0.896 3.968 1.498 7.646 3.84 10.615 6.876l10.819-10.82c-4.716-4.8-10.517-8.537-16.841-10.849-2.469-0.903-5.019-1.59-7.609-2.043zm-6.685 18.388 5.332-21.212h-20.646l5.332 21.212z"/><path d="m50.49 19.443c-5.2083 5.9524-8.8846 13.293-10.149 21.122-0.39671 1.2838 1.4619 0.58642 2.1555 0.75855 4.569-8.06e-4 9.1381-0.0016 13.707-0.0024 0.68644-0.62643 0.60765-1.8498 1.0109-2.7179 0.93807-2.9462 2.5234-5.6528 4.4712-8.0658-0.1513-0.97987-1.4322-1.5701-2.0276-2.3922-2.9771-2.9065-5.8444-5.9857-8.8902-8.7843-0.10014-0.08139-0.18572 0.04741-0.27783 0.08203z" fill="#decd87" stroke-width=".17678"/><path d="m39.975 64.873c-0.16312 5.4607-0.02296 10.975-0.06974 16.456-0.01091 0.94496-0.31435 2.5428 1.1839 2.0678 4.9387-0.04988 9.9217 0.0998 14.833-0.0749 0.33397-1.3123 0.0413-2.8827 0.13991-4.291-0.04988-4.703 0.09979-9.4503-0.0749-14.125-1.3123-0.33397-2.8827-0.0413-4.291-0.13991-3.878 0.04985-7.8004-0.09975-11.651 0.0749z" fill="#decd87" stroke-width=".17678"/><path d="m85.991 2.1892c-2.7354 0.032923-5.478-0.028238-8.2087 0.11877-0.49463 0.67392 0.27589 1.6827 0.30335 2.4762 1.5988 6.2456 3.0695 12.548 4.7893 18.748 1.2605 0.49314 2.7342 0.16584 4.0683 0.28863 2.0799-0.06218 4.2205 0.14128 6.26-0.10564 1.7985-6.9751 3.5767-13.979 5.2536-20.985-0.37976-0.78173-1.561-0.35383-2.2598-0.51203-3.4018-0.04585-6.8041-0.02751-10.206-0.029003z" fill="#decd87" stroke-width=".17678"/><path d="m125.29 19.425c-3.575 3.5742-7.1499 7.1485-10.725 10.723-0.066 0.8514 0.96819 1.4771 1.3548 2.248 1.8132 2.6212 3.1387 5.6014 3.801 8.7021 0.84436 0.5239 2.1128 0.07914 3.1191 0.2265 4.3202-0.05053 8.6851 0.1006 12.977-0.0749 0.2253-1.0296-0.32624-2.2498-0.48605-3.3427-1.5002-6.8611-5.0256-13.177-9.5988-18.462-0.16174-0.11242-0.27505-0.13609-0.44298-0.02037z" fill="#decd87" stroke-width=".17678"/><path d="m120.23 64.873c-0.16312 5.4607-0.023 10.975-0.0697 16.456-0.0109 0.94496-0.31435 2.5428 1.1839 2.0678 4.9387-0.04988 9.9217 0.0998 14.833-0.0749 0.33397-1.3123 0.0413-2.8827 0.13992-4.291-0.0499-4.703 0.0998-9.4503-0.0749-14.125-1.3123-0.33397-2.8827-0.0413-4.291-0.13991-3.878 0.04985-7.8004-0.09975-11.651 0.0749z" fill="#decd87" stroke-width=".17678"/><path d="m120.23 84.849c-0.16313 5.4312-0.0229 10.916-0.0697 16.367 0.17232 0.96017-0.35214 2.3064 0.27391 3.0306 5.1908 0.0221 10.389 3e-3 15.582 9e-3 0.6912-0.66005 0.10777-2.0244 0.30004-2.9517v-16.263c-0.66005-0.6912-2.0244-0.10777-2.9517-0.30004-4.3494 0.04987-8.7432-0.09978-13.065 0.0749z" fill="#e9ddaf" stroke-width=".17678"/><path d="m120.01 42.953c0.23741 5.3292 0.10641 10.839 0.14713 16.235 0.0756 1.379-0.14783 2.8245 0.10872 4.1632 5.225 0.16315 10.503 0.02294 15.749 0.06975 0.69119-0.66005 0.10736-2.0244 0.29945-2.9517-0.0492-5.6267 0.10589-11.265-0.14595-16.885-0.0357-1.3457-1.8162-0.50803-2.6746-0.73951-4.4655 0.04989-8.9754-0.0998-13.413 0.0749z" fill="#e9ddaf" stroke-width=".17678"/><path d="m99.858 5.0863c-0.70749 0.27614-0.49232 1.3809-0.80757 1.9823-1.1018 4.389-2.2635 8.7688-3.2466 13.184 0.49902 0.66494 1.636 0.44276 2.3809 0.75069 5.3211 1.1457 10.398 3.6943 14.332 7.4588 0.59278 1.2086 1.4328 0.26039 1.9846-0.41292 3.2322-3.3019 6.6377-6.4936 9.7619-9.8642-0.74788-1.249-2.1181-2.2083-3.2342-3.2088-6.0644-5.0305-13.387-8.5754-21.171-9.8902z" fill="#e9ddaf" stroke-width=".17678"/><path d="m76.068 5.1468c-9.0784 1.6197-17.568 6.2252-24.063 12.751-0.03994 0.95559 1.3528 1.5121 1.8695 2.3042 3.0048 2.9349 5.8992 6.0433 8.9728 8.8702 1.1652-0.65718 2.0928-1.9064 3.2706-2.6711 4.0656-3.082 8.9177-4.9069 13.892-5.8509 0.57906-0.52005-0.13623-1.4313-0.13572-2.0994-1.0733-4.3835-2.0858-8.7894-3.3232-13.128-0.09553-0.17316-0.30839-0.19043-0.48268-0.17643z" fill="#e9ddaf" stroke-width=".17678"/><path d="m40.2 42.953c-0.47447 2.7664-0.17571 5.6307-0.28948 8.4356 0.03758 3.9591-0.10134 7.9615 0.06986 11.893 1.3123 0.33397 2.8827 0.0413 4.291 0.13991 3.878-0.04985 7.8004 0.09975 11.651-0.0749 0.33416-1.3123 0.04201-2.8827 0.14094-4.291 0.02136-5.1434-0.04998-10.337 0.10428-15.451 0.45286-1.2769-1.449-0.5917-2.132-0.75924-4.5828 0.04989-9.21-0.09981-13.765 0.0749z" fill="#e9ddaf" stroke-width=".17678"/><path d="m39.975 84.849c-0.16313 5.4312-0.02287 10.916-0.06974 16.367 0.17232 0.96017-0.35215 2.3064 0.27391 3.0306 5.1908 0.0221 10.389 3e-3 15.582 9e-3 0.6912-0.66005 0.10777-2.0244 0.30004-2.9517v-16.263c-0.66005-0.6912-2.0244-0.10777-2.9517-0.30004-4.3494 0.04987-8.7432-0.09978-13.065 0.0749z" fill="#e9ddaf" stroke-width=".17678"/></g></svg>
