<?xml version="1.0" encoding="UTF-8"?>
<svg viewBox="0 0 105 100" xmlns="http://www.w3.org/2000/svg">
<circle cx="50" cy="50" r="50" fill="#343A40"/>
<path d="m14.653 64.43c-2.3793 0-5.2173-0.2293-8.514-0.688v-3.483c3.3253 0.7167 6.2493 1.075 8.772 1.075 2.1213 0 3.6693-0.2293 4.644-0.688 0.9747-0.4873 1.462-1.376 1.462-2.666v-3.612c0-1.204-0.344-2.0497-1.032-2.537s-1.892-0.731-3.612-0.731h-3.268c-2.7233 0-4.6583-0.5447-5.805-1.634s-1.72-2.7807-1.72-5.074v-2.236c0-1.5193 0.32967-2.752 0.989-3.698 0.688-0.946 1.8203-1.6483 3.397-2.107 1.6053-0.4587 3.7983-0.688 6.579-0.688 1.8633 0 4.257 0.1577 7.181 0.473v3.139c-3.268-0.4873-5.762-0.731-7.482-0.731-2.666 0-4.429 0.258-5.289 0.774-0.8887 0.5447-1.333 1.4477-1.333 2.709v3.182c0 0.9747 0.344 1.6913 1.032 2.15 0.7167 0.43 1.935 0.645 3.655 0.645h3.354c1.9207 0 3.4113 0.2293 4.472 0.688 1.0893 0.4587 1.849 1.161 2.279 2.107 0.4587 0.9173 0.688 2.1643 0.688 3.741v2.021c0 1.978-0.3727 3.5403-1.118 4.687-0.7167 1.1467-1.8347 1.9637-3.354 2.451s-3.5117 0.731-5.977 0.731zm24.954 0c-6.364 0-9.546-2.1213-9.546-6.364v-8.213c0-2.5227 0.7167-4.3287 2.15-5.418 1.462-1.118 3.8127-1.677 7.052-1.677 3.0674 0 5.2747 0.5303 6.622 1.591 1.376 1.0607 2.064 2.8953 2.064 5.504v4.601h-13.975v3.139c0 1.4333 0.5017 2.4653 1.505 3.096 1.0034 0.6307 2.5514 0.946 4.644 0.946 1.978 0 4.3144-0.344 7.009-1.032v2.967c-2.6373 0.5733-5.1456 0.86-7.525 0.86zm4.472-12.513v-3.268c0-1.2613-0.387-2.1213-1.161-2.58-0.7453-0.4873-2.0353-0.731-3.87-0.731-1.7773 0-3.0673 0.2437-3.87 0.731-0.8026 0.4587-1.204 1.3187-1.204 2.58v3.268h10.105zm16.175 12.513c-1.978 0-3.5117-0.1863-4.601-0.559-1.0607-0.3727-1.8347-1.032-2.322-1.978-0.4587-0.946-0.688-2.3077-0.688-4.085 0-1.5767 0.215-2.795 0.645-3.655 0.4586-0.8887 1.2183-1.5193 2.279-1.892 1.0893-0.3727 2.623-0.559 4.601-0.559h6.235v-3.311c0-0.774-0.1577-1.3617-0.473-1.763-0.2867-0.43-0.7884-0.731-1.505-0.903-0.688-0.172-1.7057-0.258-3.053-0.258-2.15 0-4.5294 0.172-7.138 0.516v-2.838c2.838-0.258 5.4036-0.387 7.697-0.387 2.408 0 4.1853 0.1863 5.332 0.559 1.1466 0.344 1.935 0.9603 2.365 1.849s0.645 2.2647 0.645 4.128v14.706h-3.741v-1.978c-0.3154 1.6053-2.408 2.408-6.278 2.408zm0.645-2.537c1.4046 0 2.5943-0.1003 3.569-0.301 1.29-0.258 1.935-0.86 1.935-1.806v-5.676h-5.977c-1.2327 0-2.1214 0.1003-2.666 0.301-0.5447 0.172-0.903 0.516-1.075 1.032s-0.258 1.3473-0.258 2.494c0 1.032 0.1003 1.8347 0.301 2.408 0.2006 0.5447 0.559 0.946 1.075 1.204 0.516 0.2293 1.29 0.344 2.322 0.344h0.774zm16.086-18.705h3.87v2.537c0.4013-1.978 2.6803-2.967 6.837-2.967 2.666 0 4.5293 0.4873 5.59 1.462 1.0893 0.946 1.634 2.451 1.634 4.515v15.265h-3.87v-15.05c0-0.5447-0.043-0.989-0.129-1.333s-0.258-0.688-0.516-1.032c-0.5734-0.7167-1.849-1.075-3.827-1.075-1.5194 0-2.6947 0.1147-3.526 0.344-0.8027 0.2007-1.376 0.5447-1.72 1.032-0.3154 0.4873-0.473 1.1753-0.473 2.064v15.05h-3.87v-20.812z" fill="#fff"/>
</svg>
